  0
SECTION
  2
HEADER
  9
$ANGBASE
  50
0.0
  9
$ANGDIR
  70
1
  9
$MEASUREMENT
  70
1
  0
ENDSEC
  0
SECTION
  2
TABLES
  0
TABLE
  2
LTYPE
  70
4
  0
LTYPE
  5
40F
  2
CONTINUOUS
  70
0
  3
Solid line
  72
65
  73
0
  40
0.0
  0
LTYPE
  5
410
  2
DASHDOT
 70
0
  3
Dash Dot ____ _ ____ _
 72
65
 73
4
 40
2.0
 49
1.25
 49
-0.25
 49
0.25
 49
-0.25
  0
LTYPE
  5
411
  2
DASHED
 70
0
  3
Dashed __ __ __ __ __
 72
65
 73
2
 40
0.75
 49
0.5
 49
-0.25
  0
LTYPE
  5
43B
  2
DOTTED
 70
0
  3
Dotted .  .  .  .
 72
65
 73
2
 40
0.2
 49
0.0
 49
-0.2
  0
ENDTAB
  0
TABLE
  2
STYLE
  70
4
  0
STYLE
  2
KICAD
  70
0
  40
0
  41
1
  42
1
  50
0
  71
0
  3
isocp.shx
  0
STYLE
  2
KICADB
  70
0
  40
0
  41
1
  42
1
  50
0
  71
0
  3
isocp.shx
  0
STYLE
  2
KICADI
  70
0
  40
0
  41
1
  42
1
  50
15
  71
0
  3
isocp.shx
  0
STYLE
  2
KICADBI
  70
0
  40
0
  41
1
  42
1
  50
15
  71
0
  3
isocp.shx
  0
ENDTAB
  0
TABLE
  2
LAYER
  70
1
  0
LAYER
  2
BLACK
  70
0
  62
7
  6
CONTINUOUS
  0
ENDTAB
  0
ENDSEC
  0
SECTION
  2
ENTITIES
0
LINE
8
BLACK
6
CONTINUOUS
10
114
20
-66.6444
11
158.013
21
-66.6444
0
LINE
8
BLACK
6
CONTINUOUS
10
158.013
20
-66.6444
11
158.013
21
-94.0348
0
LINE
8
BLACK
6
CONTINUOUS
10
158.013
20
-94.0348
11
114
21
-94.0348
0
LINE
8
BLACK
6
CONTINUOUS
10
114
20
-94.0348
11
114
21
-66.6444
0
LINE
8
BLACK
6
CONTINUOUS
10
117.405
20
-73.5648
11
118.205
21
-74.3648
0
LINE
8
BLACK
6
CONTINUOUS
10
118.205
20
-73.5648
11
117.405
21
-74.3648
0
CIRCLE
8
BLACK
10
117.805
20
-76.5048
40
0.5
0
CIRCLE
8
BLACK
10
117.805
20
-79.0448
40
0.5
0
CIRCLE
8
BLACK
10
117.805
20
-81.5848
40
0.5
0
CIRCLE
8
BLACK
10
117.805
20
-84.1248
40
0.5
0
CIRCLE
8
BLACK
10
117.805
20
-86.6648
40
0.5
0
CIRCLE
8
BLACK
10
117.805
20
-89.2048
40
0.5
0
CIRCLE
8
BLACK
10
121.95
20
-68.9
40
0.5
0
CIRCLE
8
BLACK
10
121.95
20
-71.44
40
0.5
0
CIRCLE
8
BLACK
10
121.95
20
-73.98
40
0.5
0
CIRCLE
8
BLACK
10
121.95
20
-76.52
40
0.5
0
CIRCLE
8
BLACK
10
121.95
20
-79.06
40
0.5
0
CIRCLE
8
BLACK
10
121.95
20
-81.6
40
0.5
0
CIRCLE
8
BLACK
10
121.95
20
-84.14
40
0.5
0
CIRCLE
8
BLACK
10
121.95
20
-86.68
40
0.5
0
CIRCLE
8
BLACK
10
144.81
20
-68.9
40
0.5
0
CIRCLE
8
BLACK
10
144.81
20
-71.44
40
0.5
0
CIRCLE
8
BLACK
10
144.81
20
-73.98
40
0.5
0
CIRCLE
8
BLACK
10
144.81
20
-76.52
40
0.5
0
CIRCLE
8
BLACK
10
144.81
20
-79.06
40
0.5
0
CIRCLE
8
BLACK
10
144.81
20
-81.6
40
0.5
0
CIRCLE
8
BLACK
10
144.81
20
-84.14
40
0.5
0
CIRCLE
8
BLACK
10
144.81
20
-86.68
40
0.5
0
CIRCLE
8
BLACK
10
148.387
20
-89.2048
40
0.5
0
CIRCLE
8
BLACK
10
149.758
20
-70.0024
40
0.5
0
CIRCLE
8
BLACK
10
149.758
20
-72.5424
40
0.5
0
CIRCLE
8
BLACK
10
149.758
20
-75.0824
40
0.5
0
CIRCLE
8
BLACK
10
149.758
20
-77.6224
40
0.5
0
CIRCLE
8
BLACK
10
150.927
20
-89.2048
40
0.5
0
CIRCLE
8
BLACK
10
153.467
20
-89.2048
40
0.5
0
CIRCLE
8
BLACK
10
153.523
20
-70.3072
40
0.5
0
CIRCLE
8
BLACK
10
156.063
20
-70.3072
40
0.5
0
CIRCLE
8
BLACK
10
156.159
20
-74.6252
40
0.5
0
CIRCLE
8
BLACK
10
156.159
20
-82.2452
40
0.5
0
LINE
8
BLACK
6
CONTINUOUS
10
116.526
20
-97.1896
11
116.526
21
-95.1896
0
LINE
8
BLACK
6
CONTINUOUS
10
116.526
20
-95.1896
11
117.002
21
-95.1896
0
LINE
8
BLACK
6
CONTINUOUS
10
117.002
20
-95.1896
11
117.288
21
-95.2848
0
LINE
8
BLACK
6
CONTINUOUS
10
117.288
20
-95.2848
11
117.479
21
-95.4753
0
LINE
8
BLACK
6
CONTINUOUS
10
117.479
20
-95.4753
11
117.574
21
-95.6658
0
LINE
8
BLACK
6
CONTINUOUS
10
117.574
20
-95.6658
11
117.669
21
-96.0467
0
LINE
8
BLACK
6
CONTINUOUS
10
117.669
20
-96.0467
11
117.669
21
-96.3324
0
LINE
8
BLACK
6
CONTINUOUS
10
117.669
20
-96.3324
11
117.574
21
-96.7134
0
LINE
8
BLACK
6
CONTINUOUS
10
117.574
20
-96.7134
11
117.479
21
-96.9038
0
LINE
8
BLACK
6
CONTINUOUS
10
117.479
20
-96.9038
11
117.288
21
-97.0943
0
LINE
8
BLACK
6
CONTINUOUS
10
117.288
20
-97.0943
11
117.002
21
-97.1896
0
LINE
8
BLACK
6
CONTINUOUS
10
117.002
20
-97.1896
11
116.526
21
-97.1896
0
LINE
8
BLACK
6
CONTINUOUS
10
118.526
20
-97.1896
11
118.526
21
-95.8562
0
LINE
8
BLACK
6
CONTINUOUS
10
118.526
20
-96.2372
11
118.621
21
-96.0467
0
LINE
8
BLACK
6
CONTINUOUS
10
118.621
20
-96.0467
11
118.717
21
-95.9515
0
LINE
8
BLACK
6
CONTINUOUS
10
118.717
20
-95.9515
11
118.907
21
-95.8562
0
LINE
8
BLACK
6
CONTINUOUS
10
118.907
20
-95.8562
11
119.098
21
-95.8562
0
LINE
8
BLACK
6
CONTINUOUS
10
119.764
20
-97.1896
11
119.764
21
-95.8562
0
LINE
8
BLACK
6
CONTINUOUS
10
119.764
20
-95.1896
11
119.669
21
-95.2848
0
LINE
8
BLACK
6
CONTINUOUS
10
119.669
20
-95.2848
11
119.764
21
-95.38
0
LINE
8
BLACK
6
CONTINUOUS
10
119.764
20
-95.38
11
119.86
21
-95.2848
0
LINE
8
BLACK
6
CONTINUOUS
10
119.86
20
-95.2848
11
119.764
21
-95.1896
0
LINE
8
BLACK
6
CONTINUOUS
10
119.764
20
-95.1896
11
119.764
21
-95.38
0
LINE
8
BLACK
6
CONTINUOUS
10
121.002
20
-97.1896
11
120.812
21
-97.0943
0
LINE
8
BLACK
6
CONTINUOUS
10
120.812
20
-97.0943
11
120.717
21
-96.9038
0
LINE
8
BLACK
6
CONTINUOUS
10
120.717
20
-96.9038
11
120.717
21
-95.1896
0
LINE
8
BLACK
6
CONTINUOUS
10
122.05
20
-97.1896
11
121.86
21
-97.0943
0
LINE
8
BLACK
6
CONTINUOUS
10
121.86
20
-97.0943
11
121.764
21
-96.9038
0
LINE
8
BLACK
6
CONTINUOUS
10
121.764
20
-96.9038
11
121.764
21
-95.1896
0
LINE
8
BLACK
6
CONTINUOUS
10
124.336
20
-97.1896
11
124.336
21
-95.1896
0
LINE
8
BLACK
6
CONTINUOUS
10
124.336
20
-95.1896
11
125.002
21
-96.6181
0
LINE
8
BLACK
6
CONTINUOUS
10
125.002
20
-96.6181
11
125.669
21
-95.1896
0
LINE
8
BLACK
6
CONTINUOUS
10
125.669
20
-95.1896
11
125.669
21
-97.1896
0
LINE
8
BLACK
6
CONTINUOUS
10
127.479
20
-97.1896
11
127.479
21
-96.1419
0
LINE
8
BLACK
6
CONTINUOUS
10
127.479
20
-96.1419
11
127.383
21
-95.9515
0
LINE
8
BLACK
6
CONTINUOUS
10
127.383
20
-95.9515
11
127.193
21
-95.8562
0
LINE
8
BLACK
6
CONTINUOUS
10
127.193
20
-95.8562
11
126.812
21
-95.8562
0
LINE
8
BLACK
6
CONTINUOUS
10
126.812
20
-95.8562
11
126.621
21
-95.9515
0
LINE
8
BLACK
6
CONTINUOUS
10
127.479
20
-97.0943
11
127.288
21
-97.1896
0
LINE
8
BLACK
6
CONTINUOUS
10
127.288
20
-97.1896
11
126.812
21
-97.1896
0
LINE
8
BLACK
6
CONTINUOUS
10
126.812
20
-97.1896
11
126.621
21
-97.0943
0
LINE
8
BLACK
6
CONTINUOUS
10
126.621
20
-97.0943
11
126.526
21
-96.9038
0
LINE
8
BLACK
6
CONTINUOUS
10
126.526
20
-96.9038
11
126.526
21
-96.7134
0
LINE
8
BLACK
6
CONTINUOUS
10
126.526
20
-96.7134
11
126.621
21
-96.5229
0
LINE
8
BLACK
6
CONTINUOUS
10
126.621
20
-96.5229
11
126.812
21
-96.4277
0
LINE
8
BLACK
6
CONTINUOUS
10
126.812
20
-96.4277
11
127.288
21
-96.4277
0
LINE
8
BLACK
6
CONTINUOUS
10
127.288
20
-96.4277
11
127.479
21
-96.3324
0
LINE
8
BLACK
6
CONTINUOUS
10
128.431
20
-95.8562
11
128.431
21
-97.8562
0
LINE
8
BLACK
6
CONTINUOUS
10
128.431
20
-95.9515
11
128.621
21
-95.8562
0
LINE
8
BLACK
6
CONTINUOUS
10
128.621
20
-95.8562
11
129.002
21
-95.8562
0
LINE
8
BLACK
6
CONTINUOUS
10
129.002
20
-95.8562
11
129.193
21
-95.9515
0
LINE
8
BLACK
6
CONTINUOUS
10
129.193
20
-95.9515
11
129.288
21
-96.0467
0
LINE
8
BLACK
6
CONTINUOUS
10
129.288
20
-96.0467
11
129.383
21
-96.2372
0
LINE
8
BLACK
6
CONTINUOUS
10
129.383
20
-96.2372
11
129.383
21
-96.8086
0
LINE
8
BLACK
6
CONTINUOUS
10
129.383
20
-96.8086
11
129.288
21
-96.9991
0
LINE
8
BLACK
6
CONTINUOUS
10
129.288
20
-96.9991
11
129.193
21
-97.0943
0
LINE
8
BLACK
6
CONTINUOUS
10
129.193
20
-97.0943
11
129.002
21
-97.1896
0
LINE
8
BLACK
6
CONTINUOUS
10
129.002
20
-97.1896
11
128.621
21
-97.1896
0
LINE
8
BLACK
6
CONTINUOUS
10
128.621
20
-97.1896
11
128.431
21
-97.0943
0
LINE
8
BLACK
6
CONTINUOUS
10
130.24
20
-96.9991
11
130.336
21
-97.0943
0
LINE
8
BLACK
6
CONTINUOUS
10
130.336
20
-97.0943
11
130.24
21
-97.1896
0
LINE
8
BLACK
6
CONTINUOUS
10
130.24
20
-97.1896
11
130.145
21
-97.0943
0
LINE
8
BLACK
6
CONTINUOUS
10
130.145
20
-97.0943
11
130.24
21
-96.9991
0
LINE
8
BLACK
6
CONTINUOUS
10
130.24
20
-96.9991
11
130.24
21
-97.1896
0
LINE
8
BLACK
6
CONTINUOUS
10
130.24
20
-95.9515
11
130.336
21
-96.0467
0
LINE
8
BLACK
6
CONTINUOUS
10
130.336
20
-96.0467
11
130.24
21
-96.1419
0
LINE
8
BLACK
6
CONTINUOUS
10
130.24
20
-96.1419
11
130.145
21
-96.0467
0
LINE
8
BLACK
6
CONTINUOUS
10
130.145
20
-96.0467
11
130.24
21
-95.9515
0
LINE
8
BLACK
6
CONTINUOUS
10
130.24
20
-95.9515
11
130.24
21
-96.1419
0
LINE
8
BLACK
6
CONTINUOUS
10
113.15
20
-100.085
11
113.95
21
-100.885
0
LINE
8
BLACK
6
CONTINUOUS
10
113.95
20
-100.085
11
113.15
21
-100.885
0
LINE
8
BLACK
6
CONTINUOUS
10
116.907
20
-99.3896
11
117.098
21
-99.3896
0
LINE
8
BLACK
6
CONTINUOUS
10
117.098
20
-99.3896
11
117.288
21
-99.4848
0
LINE
8
BLACK
6
CONTINUOUS
10
117.288
20
-99.4848
11
117.383
21
-99.58
0
LINE
8
BLACK
6
CONTINUOUS
10
117.383
20
-99.58
11
117.479
21
-99.7705
0
LINE
8
BLACK
6
CONTINUOUS
10
117.479
20
-99.7705
11
117.574
21
-100.151
0
LINE
8
BLACK
6
CONTINUOUS
10
117.574
20
-100.151
11
117.574
21
-100.628
0
LINE
8
BLACK
6
CONTINUOUS
10
117.574
20
-100.628
11
117.479
21
-101.009
0
LINE
8
BLACK
6
CONTINUOUS
10
117.479
20
-101.009
11
117.383
21
-101.199
0
LINE
8
BLACK
6
CONTINUOUS
10
117.383
20
-101.199
11
117.288
21
-101.294
0
LINE
8
BLACK
6
CONTINUOUS
10
117.288
20
-101.294
11
117.098
21
-101.39
0
LINE
8
BLACK
6
CONTINUOUS
10
117.098
20
-101.39
11
116.907
21
-101.39
0
LINE
8
BLACK
6
CONTINUOUS
10
116.907
20
-101.39
11
116.717
21
-101.294
0
LINE
8
BLACK
6
CONTINUOUS
10
116.717
20
-101.294
11
116.621
21
-101.199
0
LINE
8
BLACK
6
CONTINUOUS
10
116.621
20
-101.199
11
116.526
21
-101.009
0
LINE
8
BLACK
6
CONTINUOUS
10
116.526
20
-101.009
11
116.431
21
-100.628
0
LINE
8
BLACK
6
CONTINUOUS
10
116.431
20
-100.628
11
116.431
21
-100.151
0
LINE
8
BLACK
6
CONTINUOUS
10
116.431
20
-100.151
11
116.526
21
-99.7705
0
LINE
8
BLACK
6
CONTINUOUS
10
116.526
20
-99.7705
11
116.621
21
-99.58
0
LINE
8
BLACK
6
CONTINUOUS
10
116.621
20
-99.58
11
116.717
21
-99.4848
0
LINE
8
BLACK
6
CONTINUOUS
10
116.717
20
-99.4848
11
116.907
21
-99.3896
0
LINE
8
BLACK
6
CONTINUOUS
10
118.431
20
-101.199
11
118.526
21
-101.294
0
LINE
8
BLACK
6
CONTINUOUS
10
118.526
20
-101.294
11
118.431
21
-101.39
0
LINE
8
BLACK
6
CONTINUOUS
10
118.431
20
-101.39
11
118.336
21
-101.294
0
LINE
8
BLACK
6
CONTINUOUS
10
118.336
20
-101.294
11
118.431
21
-101.199
0
LINE
8
BLACK
6
CONTINUOUS
10
118.431
20
-101.199
11
118.431
21
-101.39
0
LINE
8
BLACK
6
CONTINUOUS
10
119.669
20
-100.247
11
119.479
21
-100.151
0
LINE
8
BLACK
6
CONTINUOUS
10
119.479
20
-100.151
11
119.383
21
-100.056
0
LINE
8
BLACK
6
CONTINUOUS
10
119.383
20
-100.056
11
119.288
21
-99.8658
0
LINE
8
BLACK
6
CONTINUOUS
10
119.288
20
-99.8658
11
119.288
21
-99.7705
0
LINE
8
BLACK
6
CONTINUOUS
10
119.288
20
-99.7705
11
119.383
21
-99.58
0
LINE
8
BLACK
6
CONTINUOUS
10
119.383
20
-99.58
11
119.479
21
-99.4848
0
LINE
8
BLACK
6
CONTINUOUS
10
119.479
20
-99.4848
11
119.669
21
-99.3896
0
LINE
8
BLACK
6
CONTINUOUS
10
119.669
20
-99.3896
11
120.05
21
-99.3896
0
LINE
8
BLACK
6
CONTINUOUS
10
120.05
20
-99.3896
11
120.24
21
-99.4848
0
LINE
8
BLACK
6
CONTINUOUS
10
120.24
20
-99.4848
11
120.336
21
-99.58
0
LINE
8
BLACK
6
CONTINUOUS
10
120.336
20
-99.58
11
120.431
21
-99.7705
0
LINE
8
BLACK
6
CONTINUOUS
10
120.431
20
-99.7705
11
120.431
21
-99.8658
0
LINE
8
BLACK
6
CONTINUOUS
10
120.431
20
-99.8658
11
120.336
21
-100.056
0
LINE
8
BLACK
6
CONTINUOUS
10
120.336
20
-100.056
11
120.24
21
-100.151
0
LINE
8
BLACK
6
CONTINUOUS
10
120.24
20
-100.151
11
120.05
21
-100.247
0
LINE
8
BLACK
6
CONTINUOUS
10
120.05
20
-100.247
11
119.669
21
-100.247
0
LINE
8
BLACK
6
CONTINUOUS
10
119.669
20
-100.247
11
119.479
21
-100.342
0
LINE
8
BLACK
6
CONTINUOUS
10
119.479
20
-100.342
11
119.383
21
-100.437
0
LINE
8
BLACK
6
CONTINUOUS
10
119.383
20
-100.437
11
119.288
21
-100.628
0
LINE
8
BLACK
6
CONTINUOUS
10
119.288
20
-100.628
11
119.288
21
-101.009
0
LINE
8
BLACK
6
CONTINUOUS
10
119.288
20
-101.009
11
119.383
21
-101.199
0
LINE
8
BLACK
6
CONTINUOUS
10
119.383
20
-101.199
11
119.479
21
-101.294
0
LINE
8
BLACK
6
CONTINUOUS
10
119.479
20
-101.294
11
119.669
21
-101.39
0
LINE
8
BLACK
6
CONTINUOUS
10
119.669
20
-101.39
11
120.05
21
-101.39
0
LINE
8
BLACK
6
CONTINUOUS
10
120.05
20
-101.39
11
120.24
21
-101.294
0
LINE
8
BLACK
6
CONTINUOUS
10
120.24
20
-101.294
11
120.336
21
-101.199
0
LINE
8
BLACK
6
CONTINUOUS
10
120.336
20
-101.199
11
120.431
21
-101.009
0
LINE
8
BLACK
6
CONTINUOUS
10
120.431
20
-101.009
11
120.431
21
-100.628
0
LINE
8
BLACK
6
CONTINUOUS
10
120.431
20
-100.628
11
120.336
21
-100.437
0
LINE
8
BLACK
6
CONTINUOUS
10
120.336
20
-100.437
11
120.24
21
-100.342
0
LINE
8
BLACK
6
CONTINUOUS
10
120.24
20
-100.342
11
120.05
21
-100.247
0
LINE
8
BLACK
6
CONTINUOUS
10
121.669
20
-99.3896
11
121.86
21
-99.3896
0
LINE
8
BLACK
6
CONTINUOUS
10
121.86
20
-99.3896
11
122.05
21
-99.4848
0
LINE
8
BLACK
6
CONTINUOUS
10
122.05
20
-99.4848
11
122.145
21
-99.58
0
LINE
8
BLACK
6
CONTINUOUS
10
122.145
20
-99.58
11
122.24
21
-99.7705
0
LINE
8
BLACK
6
CONTINUOUS
10
122.24
20
-99.7705
11
122.336
21
-100.151
0
LINE
8
BLACK
6
CONTINUOUS
10
122.336
20
-100.151
11
122.336
21
-100.628
0
LINE
8
BLACK
6
CONTINUOUS
10
122.336
20
-100.628
11
122.24
21
-101.009
0
LINE
8
BLACK
6
CONTINUOUS
10
122.24
20
-101.009
11
122.145
21
-101.199
0
LINE
8
BLACK
6
CONTINUOUS
10
122.145
20
-101.199
11
122.05
21
-101.294
0
LINE
8
BLACK
6
CONTINUOUS
10
122.05
20
-101.294
11
121.86
21
-101.39
0
LINE
8
BLACK
6
CONTINUOUS
10
121.86
20
-101.39
11
121.669
21
-101.39
0
LINE
8
BLACK
6
CONTINUOUS
10
121.669
20
-101.39
11
121.479
21
-101.294
0
LINE
8
BLACK
6
CONTINUOUS
10
121.479
20
-101.294
11
121.383
21
-101.199
0
LINE
8
BLACK
6
CONTINUOUS
10
121.383
20
-101.199
11
121.288
21
-101.009
0
LINE
8
BLACK
6
CONTINUOUS
10
121.288
20
-101.009
11
121.193
21
-100.628
0
LINE
8
BLACK
6
CONTINUOUS
10
121.193
20
-100.628
11
121.193
21
-100.151
0
LINE
8
BLACK
6
CONTINUOUS
10
121.193
20
-100.151
11
121.288
21
-99.7705
0
LINE
8
BLACK
6
CONTINUOUS
10
121.288
20
-99.7705
11
121.383
21
-99.58
0
LINE
8
BLACK
6
CONTINUOUS
10
121.383
20
-99.58
11
121.479
21
-99.4848
0
LINE
8
BLACK
6
CONTINUOUS
10
121.479
20
-99.4848
11
121.669
21
-99.3896
0
LINE
8
BLACK
6
CONTINUOUS
10
123.574
20
-99.3896
11
123.764
21
-99.3896
0
LINE
8
BLACK
6
CONTINUOUS
10
123.764
20
-99.3896
11
123.955
21
-99.4848
0
LINE
8
BLACK
6
CONTINUOUS
10
123.955
20
-99.4848
11
124.05
21
-99.58
0
LINE
8
BLACK
6
CONTINUOUS
10
124.05
20
-99.58
11
124.145
21
-99.7705
0
LINE
8
BLACK
6
CONTINUOUS
10
124.145
20
-99.7705
11
124.24
21
-100.151
0
LINE
8
BLACK
6
CONTINUOUS
10
124.24
20
-100.151
11
124.24
21
-100.628
0
LINE
8
BLACK
6
CONTINUOUS
10
124.24
20
-100.628
11
124.145
21
-101.009
0
LINE
8
BLACK
6
CONTINUOUS
10
124.145
20
-101.009
11
124.05
21
-101.199
0
LINE
8
BLACK
6
CONTINUOUS
10
124.05
20
-101.199
11
123.955
21
-101.294
0
LINE
8
BLACK
6
CONTINUOUS
10
123.955
20
-101.294
11
123.764
21
-101.39
0
LINE
8
BLACK
6
CONTINUOUS
10
123.764
20
-101.39
11
123.574
21
-101.39
0
LINE
8
BLACK
6
CONTINUOUS
10
123.574
20
-101.39
11
123.383
21
-101.294
0
LINE
8
BLACK
6
CONTINUOUS
10
123.383
20
-101.294
11
123.288
21
-101.199
0
LINE
8
BLACK
6
CONTINUOUS
10
123.288
20
-101.199
11
123.193
21
-101.009
0
LINE
8
BLACK
6
CONTINUOUS
10
123.193
20
-101.009
11
123.098
21
-100.628
0
LINE
8
BLACK
6
CONTINUOUS
10
123.098
20
-100.628
11
123.098
21
-100.151
0
LINE
8
BLACK
6
CONTINUOUS
10
123.098
20
-100.151
11
123.193
21
-99.7705
0
LINE
8
BLACK
6
CONTINUOUS
10
123.193
20
-99.7705
11
123.288
21
-99.58
0
LINE
8
BLACK
6
CONTINUOUS
10
123.288
20
-99.58
11
123.383
21
-99.4848
0
LINE
8
BLACK
6
CONTINUOUS
10
123.383
20
-99.4848
11
123.574
21
-99.3896
0
LINE
8
BLACK
6
CONTINUOUS
10
125.098
20
-101.39
11
125.098
21
-100.056
0
LINE
8
BLACK
6
CONTINUOUS
10
125.098
20
-100.247
11
125.193
21
-100.151
0
LINE
8
BLACK
6
CONTINUOUS
10
125.193
20
-100.151
11
125.383
21
-100.056
0
LINE
8
BLACK
6
CONTINUOUS
10
125.383
20
-100.056
11
125.669
21
-100.056
0
LINE
8
BLACK
6
CONTINUOUS
10
125.669
20
-100.056
11
125.86
21
-100.151
0
LINE
8
BLACK
6
CONTINUOUS
10
125.86
20
-100.151
11
125.955
21
-100.342
0
LINE
8
BLACK
6
CONTINUOUS
10
125.955
20
-100.342
11
125.955
21
-101.39
0
LINE
8
BLACK
6
CONTINUOUS
10
125.955
20
-100.342
11
126.05
21
-100.151
0
LINE
8
BLACK
6
CONTINUOUS
10
126.05
20
-100.151
11
126.24
21
-100.056
0
LINE
8
BLACK
6
CONTINUOUS
10
126.24
20
-100.056
11
126.526
21
-100.056
0
LINE
8
BLACK
6
CONTINUOUS
10
126.526
20
-100.056
11
126.717
21
-100.151
0
LINE
8
BLACK
6
CONTINUOUS
10
126.717
20
-100.151
11
126.812
21
-100.342
0
LINE
8
BLACK
6
CONTINUOUS
10
126.812
20
-100.342
11
126.812
21
-101.39
0
LINE
8
BLACK
6
CONTINUOUS
10
127.764
20
-101.39
11
127.764
21
-100.056
0
LINE
8
BLACK
6
CONTINUOUS
10
127.764
20
-100.247
11
127.86
21
-100.151
0
LINE
8
BLACK
6
CONTINUOUS
10
127.86
20
-100.151
11
128.05
21
-100.056
0
LINE
8
BLACK
6
CONTINUOUS
10
128.05
20
-100.056
11
128.336
21
-100.056
0
LINE
8
BLACK
6
CONTINUOUS
10
128.336
20
-100.056
11
128.526
21
-100.151
0
LINE
8
BLACK
6
CONTINUOUS
10
128.526
20
-100.151
11
128.621
21
-100.342
0
LINE
8
BLACK
6
CONTINUOUS
10
128.621
20
-100.342
11
128.621
21
-101.39
0
LINE
8
BLACK
6
CONTINUOUS
10
128.621
20
-100.342
11
128.717
21
-100.151
0
LINE
8
BLACK
6
CONTINUOUS
10
128.717
20
-100.151
11
128.907
21
-100.056
0
LINE
8
BLACK
6
CONTINUOUS
10
128.907
20
-100.056
11
129.193
21
-100.056
0
LINE
8
BLACK
6
CONTINUOUS
10
129.193
20
-100.056
11
129.383
21
-100.151
0
LINE
8
BLACK
6
CONTINUOUS
10
129.383
20
-100.151
11
129.479
21
-100.342
0
LINE
8
BLACK
6
CONTINUOUS
10
129.479
20
-100.342
11
129.479
21
-101.39
0
LINE
8
BLACK
6
CONTINUOUS
10
133.383
20
-99.2943
11
131.669
21
-101.866
0
LINE
8
BLACK
6
CONTINUOUS
10
135.955
20
-99.3896
11
136.145
21
-99.3896
0
LINE
8
BLACK
6
CONTINUOUS
10
136.145
20
-99.3896
11
136.336
21
-99.4848
0
LINE
8
BLACK
6
CONTINUOUS
10
136.336
20
-99.4848
11
136.431
21
-99.58
0
LINE
8
BLACK
6
CONTINUOUS
10
136.431
20
-99.58
11
136.526
21
-99.7705
0
LINE
8
BLACK
6
CONTINUOUS
10
136.526
20
-99.7705
11
136.621
21
-100.151
0
LINE
8
BLACK
6
CONTINUOUS
10
136.621
20
-100.151
11
136.621
21
-100.628
0
LINE
8
BLACK
6
CONTINUOUS
10
136.621
20
-100.628
11
136.526
21
-101.009
0
LINE
8
BLACK
6
CONTINUOUS
10
136.526
20
-101.009
11
136.431
21
-101.199
0
LINE
8
BLACK
6
CONTINUOUS
10
136.431
20
-101.199
11
136.336
21
-101.294
0
LINE
8
BLACK
6
CONTINUOUS
10
136.336
20
-101.294
11
136.145
21
-101.39
0
LINE
8
BLACK
6
CONTINUOUS
10
136.145
20
-101.39
11
135.955
21
-101.39
0
LINE
8
BLACK
6
CONTINUOUS
10
135.955
20
-101.39
11
135.764
21
-101.294
0
LINE
8
BLACK
6
CONTINUOUS
10
135.764
20
-101.294
11
135.669
21
-101.199
0
LINE
8
BLACK
6
CONTINUOUS
10
135.669
20
-101.199
11
135.574
21
-101.009
0
LINE
8
BLACK
6
CONTINUOUS
10
135.574
20
-101.009
11
135.479
21
-100.628
0
LINE
8
BLACK
6
CONTINUOUS
10
135.479
20
-100.628
11
135.479
21
-100.151
0
LINE
8
BLACK
6
CONTINUOUS
10
135.479
20
-100.151
11
135.574
21
-99.7705
0
LINE
8
BLACK
6
CONTINUOUS
10
135.574
20
-99.7705
11
135.669
21
-99.58
0
LINE
8
BLACK
6
CONTINUOUS
10
135.669
20
-99.58
11
135.764
21
-99.4848
0
LINE
8
BLACK
6
CONTINUOUS
10
135.764
20
-99.4848
11
135.955
21
-99.3896
0
LINE
8
BLACK
6
CONTINUOUS
10
137.479
20
-101.199
11
137.574
21
-101.294
0
LINE
8
BLACK
6
CONTINUOUS
10
137.574
20
-101.294
11
137.479
21
-101.39
0
LINE
8
BLACK
6
CONTINUOUS
10
137.479
20
-101.39
11
137.383
21
-101.294
0
LINE
8
BLACK
6
CONTINUOUS
10
137.383
20
-101.294
11
137.479
21
-101.199
0
LINE
8
BLACK
6
CONTINUOUS
10
137.479
20
-101.199
11
137.479
21
-101.39
0
LINE
8
BLACK
6
CONTINUOUS
10
138.812
20
-99.3896
11
139.002
21
-99.3896
0
LINE
8
BLACK
6
CONTINUOUS
10
139.002
20
-99.3896
11
139.193
21
-99.4848
0
LINE
8
BLACK
6
CONTINUOUS
10
139.193
20
-99.4848
11
139.288
21
-99.58
0
LINE
8
BLACK
6
CONTINUOUS
10
139.288
20
-99.58
11
139.383
21
-99.7705
0
LINE
8
BLACK
6
CONTINUOUS
10
139.383
20
-99.7705
11
139.479
21
-100.151
0
LINE
8
BLACK
6
CONTINUOUS
10
139.479
20
-100.151
11
139.479
21
-100.628
0
LINE
8
BLACK
6
CONTINUOUS
10
139.479
20
-100.628
11
139.383
21
-101.009
0
LINE
8
BLACK
6
CONTINUOUS
10
139.383
20
-101.009
11
139.288
21
-101.199
0
LINE
8
BLACK
6
CONTINUOUS
10
139.288
20
-101.199
11
139.193
21
-101.294
0
LINE
8
BLACK
6
CONTINUOUS
10
139.193
20
-101.294
11
139.002
21
-101.39
0
LINE
8
BLACK
6
CONTINUOUS
10
139.002
20
-101.39
11
138.812
21
-101.39
0
LINE
8
BLACK
6
CONTINUOUS
10
138.812
20
-101.39
11
138.621
21
-101.294
0
LINE
8
BLACK
6
CONTINUOUS
10
138.621
20
-101.294
11
138.526
21
-101.199
0
LINE
8
BLACK
6
CONTINUOUS
10
138.526
20
-101.199
11
138.431
21
-101.009
0
LINE
8
BLACK
6
CONTINUOUS
10
138.431
20
-101.009
11
138.336
21
-100.628
0
LINE
8
BLACK
6
CONTINUOUS
10
138.336
20
-100.628
11
138.336
21
-100.151
0
LINE
8
BLACK
6
CONTINUOUS
10
138.336
20
-100.151
11
138.431
21
-99.7705
0
LINE
8
BLACK
6
CONTINUOUS
10
138.431
20
-99.7705
11
138.526
21
-99.58
0
LINE
8
BLACK
6
CONTINUOUS
10
138.526
20
-99.58
11
138.621
21
-99.4848
0
LINE
8
BLACK
6
CONTINUOUS
10
138.621
20
-99.4848
11
138.812
21
-99.3896
0
LINE
8
BLACK
6
CONTINUOUS
10
140.145
20
-99.3896
11
141.383
21
-99.3896
0
LINE
8
BLACK
6
CONTINUOUS
10
141.383
20
-99.3896
11
140.717
21
-100.151
0
LINE
8
BLACK
6
CONTINUOUS
10
140.717
20
-100.151
11
141.002
21
-100.151
0
LINE
8
BLACK
6
CONTINUOUS
10
141.002
20
-100.151
11
141.193
21
-100.247
0
LINE
8
BLACK
6
CONTINUOUS
10
141.193
20
-100.247
11
141.288
21
-100.342
0
LINE
8
BLACK
6
CONTINUOUS
10
141.288
20
-100.342
11
141.383
21
-100.532
0
LINE
8
BLACK
6
CONTINUOUS
10
141.383
20
-100.532
11
141.383
21
-101.009
0
LINE
8
BLACK
6
CONTINUOUS
10
141.383
20
-101.009
11
141.288
21
-101.199
0
LINE
8
BLACK
6
CONTINUOUS
10
141.288
20
-101.199
11
141.193
21
-101.294
0
LINE
8
BLACK
6
CONTINUOUS
10
141.193
20
-101.294
11
141.002
21
-101.39
0
LINE
8
BLACK
6
CONTINUOUS
10
141.002
20
-101.39
11
140.431
21
-101.39
0
LINE
8
BLACK
6
CONTINUOUS
10
140.431
20
-101.39
11
140.24
21
-101.294
0
LINE
8
BLACK
6
CONTINUOUS
10
140.24
20
-101.294
11
140.145
21
-101.199
0
LINE
8
BLACK
6
CONTINUOUS
10
143.288
20
-101.39
11
142.145
21
-101.39
0
LINE
8
BLACK
6
CONTINUOUS
10
142.717
20
-101.39
11
142.717
21
-99.3896
0
LINE
8
BLACK
6
CONTINUOUS
10
142.717
20
-99.3896
11
142.526
21
-99.6753
0
LINE
8
BLACK
6
CONTINUOUS
10
142.526
20
-99.6753
11
142.336
21
-99.8658
0
LINE
8
BLACK
6
CONTINUOUS
10
142.336
20
-99.8658
11
142.145
21
-99.961
0
LINE
8
BLACK
6
CONTINUOUS
10
145.098
20
-99.3896
11
144.145
21
-99.3896
0
LINE
8
BLACK
6
CONTINUOUS
10
144.145
20
-99.3896
11
144.05
21
-100.342
0
LINE
8
BLACK
6
CONTINUOUS
10
144.05
20
-100.342
11
144.145
21
-100.247
0
LINE
8
BLACK
6
CONTINUOUS
10
144.145
20
-100.247
11
144.336
21
-100.151
0
LINE
8
BLACK
6
CONTINUOUS
10
144.336
20
-100.151
11
144.812
21
-100.151
0
LINE
8
BLACK
6
CONTINUOUS
10
144.812
20
-100.151
11
145.002
21
-100.247
0
LINE
8
BLACK
6
CONTINUOUS
10
145.002
20
-100.247
11
145.098
21
-100.342
0
LINE
8
BLACK
6
CONTINUOUS
10
145.098
20
-100.342
11
145.193
21
-100.532
0
LINE
8
BLACK
6
CONTINUOUS
10
145.193
20
-100.532
11
145.193
21
-101.009
0
LINE
8
BLACK
6
CONTINUOUS
10
145.193
20
-101.009
11
145.098
21
-101.199
0
LINE
8
BLACK
6
CONTINUOUS
10
145.098
20
-101.199
11
145.002
21
-101.294
0
LINE
8
BLACK
6
CONTINUOUS
10
145.002
20
-101.294
11
144.812
21
-101.39
0
LINE
8
BLACK
6
CONTINUOUS
10
144.812
20
-101.39
11
144.336
21
-101.39
0
LINE
8
BLACK
6
CONTINUOUS
10
144.336
20
-101.39
11
144.145
21
-101.294
0
LINE
8
BLACK
6
CONTINUOUS
10
144.145
20
-101.294
11
144.05
21
-101.199
0
LINE
8
BLACK
6
CONTINUOUS
10
145.955
20
-99.3896
11
145.955
21
-99.7705
0
LINE
8
BLACK
6
CONTINUOUS
10
146.717
20
-99.3896
11
146.717
21
-99.7705
0
LINE
8
BLACK
6
CONTINUOUS
10
149.669
20
-102.151
11
149.574
21
-102.056
0
LINE
8
BLACK
6
CONTINUOUS
10
149.574
20
-102.056
11
149.383
21
-101.771
0
LINE
8
BLACK
6
CONTINUOUS
10
149.383
20
-101.771
11
149.288
21
-101.58
0
LINE
8
BLACK
6
CONTINUOUS
10
149.288
20
-101.58
11
149.193
21
-101.294
0
LINE
8
BLACK
6
CONTINUOUS
10
149.193
20
-101.294
11
149.098
21
-100.818
0
LINE
8
BLACK
6
CONTINUOUS
10
149.098
20
-100.818
11
149.098
21
-100.437
0
LINE
8
BLACK
6
CONTINUOUS
10
149.098
20
-100.437
11
149.193
21
-99.961
0
LINE
8
BLACK
6
CONTINUOUS
10
149.193
20
-99.961
11
149.288
21
-99.6753
0
LINE
8
BLACK
6
CONTINUOUS
10
149.288
20
-99.6753
11
149.383
21
-99.4848
0
LINE
8
BLACK
6
CONTINUOUS
10
149.383
20
-99.4848
11
149.574
21
-99.1991
0
LINE
8
BLACK
6
CONTINUOUS
10
149.574
20
-99.1991
11
149.669
21
-99.1038
0
LINE
8
BLACK
6
CONTINUOUS
10
151.479
20
-101.39
11
150.336
21
-101.39
0
LINE
8
BLACK
6
CONTINUOUS
10
150.907
20
-101.39
11
150.907
21
-99.3896
0
LINE
8
BLACK
6
CONTINUOUS
10
150.907
20
-99.3896
11
150.717
21
-99.6753
0
LINE
8
BLACK
6
CONTINUOUS
10
150.717
20
-99.6753
11
150.526
21
-99.8658
0
LINE
8
BLACK
6
CONTINUOUS
10
150.526
20
-99.8658
11
150.336
21
-99.961
0
LINE
8
BLACK
6
CONTINUOUS
10
153.86
20
-101.39
11
153.86
21
-99.3896
0
LINE
8
BLACK
6
CONTINUOUS
10
154.717
20
-101.39
11
154.717
21
-100.342
0
LINE
8
BLACK
6
CONTINUOUS
10
154.717
20
-100.342
11
154.621
21
-100.151
0
LINE
8
BLACK
6
CONTINUOUS
10
154.621
20
-100.151
11
154.431
21
-100.056
0
LINE
8
BLACK
6
CONTINUOUS
10
154.431
20
-100.056
11
154.145
21
-100.056
0
LINE
8
BLACK
6
CONTINUOUS
10
154.145
20
-100.056
11
153.955
21
-100.151
0
LINE
8
BLACK
6
CONTINUOUS
10
153.955
20
-100.151
11
153.86
21
-100.247
0
LINE
8
BLACK
6
CONTINUOUS
10
155.955
20
-101.39
11
155.764
21
-101.294
0
LINE
8
BLACK
6
CONTINUOUS
10
155.764
20
-101.294
11
155.669
21
-101.199
0
LINE
8
BLACK
6
CONTINUOUS
10
155.669
20
-101.199
11
155.574
21
-101.009
0
LINE
8
BLACK
6
CONTINUOUS
10
155.574
20
-101.009
11
155.574
21
-100.437
0
LINE
8
BLACK
6
CONTINUOUS
10
155.574
20
-100.437
11
155.669
21
-100.247
0
LINE
8
BLACK
6
CONTINUOUS
10
155.669
20
-100.247
11
155.764
21
-100.151
0
LINE
8
BLACK
6
CONTINUOUS
10
155.764
20
-100.151
11
155.955
21
-100.056
0
LINE
8
BLACK
6
CONTINUOUS
10
155.955
20
-100.056
11
156.24
21
-100.056
0
LINE
8
BLACK
6
CONTINUOUS
10
156.24
20
-100.056
11
156.431
21
-100.151
0
LINE
8
BLACK
6
CONTINUOUS
10
156.431
20
-100.151
11
156.526
21
-100.247
0
LINE
8
BLACK
6
CONTINUOUS
10
156.526
20
-100.247
11
156.621
21
-100.437
0
LINE
8
BLACK
6
CONTINUOUS
10
156.621
20
-100.437
11
156.621
21
-101.009
0
LINE
8
BLACK
6
CONTINUOUS
10
156.621
20
-101.009
11
156.526
21
-101.199
0
LINE
8
BLACK
6
CONTINUOUS
10
156.526
20
-101.199
11
156.431
21
-101.294
0
LINE
8
BLACK
6
CONTINUOUS
10
156.431
20
-101.294
11
156.24
21
-101.39
0
LINE
8
BLACK
6
CONTINUOUS
10
156.24
20
-101.39
11
155.955
21
-101.39
0
LINE
8
BLACK
6
CONTINUOUS
10
157.764
20
-101.39
11
157.574
21
-101.294
0
LINE
8
BLACK
6
CONTINUOUS
10
157.574
20
-101.294
11
157.479
21
-101.104
0
LINE
8
BLACK
6
CONTINUOUS
10
157.479
20
-101.104
11
157.479
21
-99.3896
0
LINE
8
BLACK
6
CONTINUOUS
10
159.288
20
-101.294
11
159.098
21
-101.39
0
LINE
8
BLACK
6
CONTINUOUS
10
159.098
20
-101.39
11
158.717
21
-101.39
0
LINE
8
BLACK
6
CONTINUOUS
10
158.717
20
-101.39
11
158.526
21
-101.294
0
LINE
8
BLACK
6
CONTINUOUS
10
158.526
20
-101.294
11
158.431
21
-101.104
0
LINE
8
BLACK
6
CONTINUOUS
10
158.431
20
-101.104
11
158.431
21
-100.342
0
LINE
8
BLACK
6
CONTINUOUS
10
158.431
20
-100.342
11
158.526
21
-100.151
0
LINE
8
BLACK
6
CONTINUOUS
10
158.526
20
-100.151
11
158.717
21
-100.056
0
LINE
8
BLACK
6
CONTINUOUS
10
158.717
20
-100.056
11
159.098
21
-100.056
0
LINE
8
BLACK
6
CONTINUOUS
10
159.098
20
-100.056
11
159.288
21
-100.151
0
LINE
8
BLACK
6
CONTINUOUS
10
159.288
20
-100.151
11
159.383
21
-100.342
0
LINE
8
BLACK
6
CONTINUOUS
10
159.383
20
-100.342
11
159.383
21
-100.532
0
LINE
8
BLACK
6
CONTINUOUS
10
159.383
20
-100.532
11
158.431
21
-100.723
0
LINE
8
BLACK
6
CONTINUOUS
10
160.05
20
-102.151
11
160.145
21
-102.056
0
LINE
8
BLACK
6
CONTINUOUS
10
160.145
20
-102.056
11
160.336
21
-101.771
0
LINE
8
BLACK
6
CONTINUOUS
10
160.336
20
-101.771
11
160.431
21
-101.58
0
LINE
8
BLACK
6
CONTINUOUS
10
160.431
20
-101.58
11
160.526
21
-101.294
0
LINE
8
BLACK
6
CONTINUOUS
10
160.526
20
-101.294
11
160.621
21
-100.818
0
LINE
8
BLACK
6
CONTINUOUS
10
160.621
20
-100.818
11
160.621
21
-100.437
0
LINE
8
BLACK
6
CONTINUOUS
10
160.621
20
-100.437
11
160.526
21
-99.961
0
LINE
8
BLACK
6
CONTINUOUS
10
160.526
20
-99.961
11
160.431
21
-99.6753
0
LINE
8
BLACK
6
CONTINUOUS
10
160.431
20
-99.6753
11
160.336
21
-99.4848
0
LINE
8
BLACK
6
CONTINUOUS
10
160.336
20
-99.4848
11
160.145
21
-99.1991
0
LINE
8
BLACK
6
CONTINUOUS
10
160.145
20
-99.1991
11
160.05
21
-99.1038
0
CIRCLE
8
BLACK
10
113.45
20
-103.125
40
0.5
0
LINE
8
BLACK
6
CONTINUOUS
10
117.574
20
-104.03
11
116.431
21
-104.03
0
LINE
8
BLACK
6
CONTINUOUS
10
117.002
20
-104.03
11
117.002
21
-102.03
0
LINE
8
BLACK
6
CONTINUOUS
10
117.002
20
-102.03
11
116.812
21
-102.315
0
LINE
8
BLACK
6
CONTINUOUS
10
116.812
20
-102.315
11
116.621
21
-102.506
0
LINE
8
BLACK
6
CONTINUOUS
10
116.621
20
-102.506
11
116.431
21
-102.601
0
LINE
8
BLACK
6
CONTINUOUS
10
118.431
20
-103.839
11
118.526
21
-103.934
0
LINE
8
BLACK
6
CONTINUOUS
10
118.526
20
-103.934
11
118.431
21
-104.03
0
LINE
8
BLACK
6
CONTINUOUS
10
118.431
20
-104.03
11
118.336
21
-103.934
0
LINE
8
BLACK
6
CONTINUOUS
10
118.336
20
-103.934
11
118.431
21
-103.839
0
LINE
8
BLACK
6
CONTINUOUS
10
118.431
20
-103.839
11
118.431
21
-104.03
0
LINE
8
BLACK
6
CONTINUOUS
10
119.764
20
-102.03
11
119.955
21
-102.03
0
LINE
8
BLACK
6
CONTINUOUS
10
119.955
20
-102.03
11
120.145
21
-102.125
0
LINE
8
BLACK
6
CONTINUOUS
10
120.145
20
-102.125
11
120.24
21
-102.22
0
LINE
8
BLACK
6
CONTINUOUS
10
120.24
20
-102.22
11
120.336
21
-102.411
0
LINE
8
BLACK
6
CONTINUOUS
10
120.336
20
-102.411
11
120.431
21
-102.791
0
LINE
8
BLACK
6
CONTINUOUS
10
120.431
20
-102.791
11
120.431
21
-103.268
0
LINE
8
BLACK
6
CONTINUOUS
10
120.431
20
-103.268
11
120.336
21
-103.649
0
LINE
8
BLACK
6
CONTINUOUS
10
120.336
20
-103.649
11
120.24
21
-103.839
0
LINE
8
BLACK
6
CONTINUOUS
10
120.24
20
-103.839
11
120.145
21
-103.934
0
LINE
8
BLACK
6
CONTINUOUS
10
120.145
20
-103.934
11
119.955
21
-104.03
0
LINE
8
BLACK
6
CONTINUOUS
10
119.955
20
-104.03
11
119.764
21
-104.03
0
LINE
8
BLACK
6
CONTINUOUS
10
119.764
20
-104.03
11
119.574
21
-103.934
0
LINE
8
BLACK
6
CONTINUOUS
10
119.574
20
-103.934
11
119.479
21
-103.839
0
LINE
8
BLACK
6
CONTINUOUS
10
119.479
20
-103.839
11
119.383
21
-103.649
0
LINE
8
BLACK
6
CONTINUOUS
10
119.383
20
-103.649
11
119.288
21
-103.268
0
LINE
8
BLACK
6
CONTINUOUS
10
119.288
20
-103.268
11
119.288
21
-102.791
0
LINE
8
BLACK
6
CONTINUOUS
10
119.288
20
-102.791
11
119.383
21
-102.411
0
LINE
8
BLACK
6
CONTINUOUS
10
119.383
20
-102.411
11
119.479
21
-102.22
0
LINE
8
BLACK
6
CONTINUOUS
10
119.479
20
-102.22
11
119.574
21
-102.125
0
LINE
8
BLACK
6
CONTINUOUS
10
119.574
20
-102.125
11
119.764
21
-102.03
0
LINE
8
BLACK
6
CONTINUOUS
10
121.669
20
-102.03
11
121.86
21
-102.03
0
LINE
8
BLACK
6
CONTINUOUS
10
121.86
20
-102.03
11
122.05
21
-102.125
0
LINE
8
BLACK
6
CONTINUOUS
10
122.05
20
-102.125
11
122.145
21
-102.22
0
LINE
8
BLACK
6
CONTINUOUS
10
122.145
20
-102.22
11
122.24
21
-102.411
0
LINE
8
BLACK
6
CONTINUOUS
10
122.24
20
-102.411
11
122.336
21
-102.791
0
LINE
8
BLACK
6
CONTINUOUS
10
122.336
20
-102.791
11
122.336
21
-103.268
0
LINE
8
BLACK
6
CONTINUOUS
10
122.336
20
-103.268
11
122.24
21
-103.649
0
LINE
8
BLACK
6
CONTINUOUS
10
122.24
20
-103.649
11
122.145
21
-103.839
0
LINE
8
BLACK
6
CONTINUOUS
10
122.145
20
-103.839
11
122.05
21
-103.934
0
LINE
8
BLACK
6
CONTINUOUS
10
122.05
20
-103.934
11
121.86
21
-104.03
0
LINE
8
BLACK
6
CONTINUOUS
10
121.86
20
-104.03
11
121.669
21
-104.03
0
LINE
8
BLACK
6
CONTINUOUS
10
121.669
20
-104.03
11
121.479
21
-103.934
0
LINE
8
BLACK
6
CONTINUOUS
10
121.479
20
-103.934
11
121.383
21
-103.839
0
LINE
8
BLACK
6
CONTINUOUS
10
121.383
20
-103.839
11
121.288
21
-103.649
0
LINE
8
BLACK
6
CONTINUOUS
10
121.288
20
-103.649
11
121.193
21
-103.268
0
LINE
8
BLACK
6
CONTINUOUS
10
121.193
20
-103.268
11
121.193
21
-102.791
0
LINE
8
BLACK
6
CONTINUOUS
10
121.193
20
-102.791
11
121.288
21
-102.411
0
LINE
8
BLACK
6
CONTINUOUS
10
121.288
20
-102.411
11
121.383
21
-102.22
0
LINE
8
BLACK
6
CONTINUOUS
10
121.383
20
-102.22
11
121.479
21
-102.125
0
LINE
8
BLACK
6
CONTINUOUS
10
121.479
20
-102.125
11
121.669
21
-102.03
0
LINE
8
BLACK
6
CONTINUOUS
10
123.574
20
-102.03
11
123.764
21
-102.03
0
LINE
8
BLACK
6
CONTINUOUS
10
123.764
20
-102.03
11
123.955
21
-102.125
0
LINE
8
BLACK
6
CONTINUOUS
10
123.955
20
-102.125
11
124.05
21
-102.22
0
LINE
8
BLACK
6
CONTINUOUS
10
124.05
20
-102.22
11
124.145
21
-102.411
0
LINE
8
BLACK
6
CONTINUOUS
10
124.145
20
-102.411
11
124.24
21
-102.791
0
LINE
8
BLACK
6
CONTINUOUS
10
124.24
20
-102.791
11
124.24
21
-103.268
0
LINE
8
BLACK
6
CONTINUOUS
10
124.24
20
-103.268
11
124.145
21
-103.649
0
LINE
8
BLACK
6
CONTINUOUS
10
124.145
20
-103.649
11
124.05
21
-103.839
0
LINE
8
BLACK
6
CONTINUOUS
10
124.05
20
-103.839
11
123.955
21
-103.934
0
LINE
8
BLACK
6
CONTINUOUS
10
123.955
20
-103.934
11
123.764
21
-104.03
0
LINE
8
BLACK
6
CONTINUOUS
10
123.764
20
-104.03
11
123.574
21
-104.03
0
LINE
8
BLACK
6
CONTINUOUS
10
123.574
20
-104.03
11
123.383
21
-103.934
0
LINE
8
BLACK
6
CONTINUOUS
10
123.383
20
-103.934
11
123.288
21
-103.839
0
LINE
8
BLACK
6
CONTINUOUS
10
123.288
20
-103.839
11
123.193
21
-103.649
0
LINE
8
BLACK
6
CONTINUOUS
10
123.193
20
-103.649
11
123.098
21
-103.268
0
LINE
8
BLACK
6
CONTINUOUS
10
123.098
20
-103.268
11
123.098
21
-102.791
0
LINE
8
BLACK
6
CONTINUOUS
10
123.098
20
-102.791
11
123.193
21
-102.411
0
LINE
8
BLACK
6
CONTINUOUS
10
123.193
20
-102.411
11
123.288
21
-102.22
0
LINE
8
BLACK
6
CONTINUOUS
10
123.288
20
-102.22
11
123.383
21
-102.125
0
LINE
8
BLACK
6
CONTINUOUS
10
123.383
20
-102.125
11
123.574
21
-102.03
0
LINE
8
BLACK
6
CONTINUOUS
10
125.098
20
-104.03
11
125.098
21
-102.696
0
LINE
8
BLACK
6
CONTINUOUS
10
125.098
20
-102.887
11
125.193
21
-102.791
0
LINE
8
BLACK
6
CONTINUOUS
10
125.193
20
-102.791
11
125.383
21
-102.696
0
LINE
8
BLACK
6
CONTINUOUS
10
125.383
20
-102.696
11
125.669
21
-102.696
0
LINE
8
BLACK
6
CONTINUOUS
10
125.669
20
-102.696
11
125.86
21
-102.791
0
LINE
8
BLACK
6
CONTINUOUS
10
125.86
20
-102.791
11
125.955
21
-102.982
0
LINE
8
BLACK
6
CONTINUOUS
10
125.955
20
-102.982
11
125.955
21
-104.03
0
LINE
8
BLACK
6
CONTINUOUS
10
125.955
20
-102.982
11
126.05
21
-102.791
0
LINE
8
BLACK
6
CONTINUOUS
10
126.05
20
-102.791
11
126.24
21
-102.696
0
LINE
8
BLACK
6
CONTINUOUS
10
126.24
20
-102.696
11
126.526
21
-102.696
0
LINE
8
BLACK
6
CONTINUOUS
10
126.526
20
-102.696
11
126.717
21
-102.791
0
LINE
8
BLACK
6
CONTINUOUS
10
126.717
20
-102.791
11
126.812
21
-102.982
0
LINE
8
BLACK
6
CONTINUOUS
10
126.812
20
-102.982
11
126.812
21
-104.03
0
LINE
8
BLACK
6
CONTINUOUS
10
127.764
20
-104.03
11
127.764
21
-102.696
0
LINE
8
BLACK
6
CONTINUOUS
10
127.764
20
-102.887
11
127.86
21
-102.791
0
LINE
8
BLACK
6
CONTINUOUS
10
127.86
20
-102.791
11
128.05
21
-102.696
0
LINE
8
BLACK
6
CONTINUOUS
10
128.05
20
-102.696
11
128.336
21
-102.696
0
LINE
8
BLACK
6
CONTINUOUS
10
128.336
20
-102.696
11
128.526
21
-102.791
0
LINE
8
BLACK
6
CONTINUOUS
10
128.526
20
-102.791
11
128.621
21
-102.982
0
LINE
8
BLACK
6
CONTINUOUS
10
128.621
20
-102.982
11
128.621
21
-104.03
0
LINE
8
BLACK
6
CONTINUOUS
10
128.621
20
-102.982
11
128.717
21
-102.791
0
LINE
8
BLACK
6
CONTINUOUS
10
128.717
20
-102.791
11
128.907
21
-102.696
0
LINE
8
BLACK
6
CONTINUOUS
10
128.907
20
-102.696
11
129.193
21
-102.696
0
LINE
8
BLACK
6
CONTINUOUS
10
129.193
20
-102.696
11
129.383
21
-102.791
0
LINE
8
BLACK
6
CONTINUOUS
10
129.383
20
-102.791
11
129.479
21
-102.982
0
LINE
8
BLACK
6
CONTINUOUS
10
129.479
20
-102.982
11
129.479
21
-104.03
0
LINE
8
BLACK
6
CONTINUOUS
10
133.383
20
-101.934
11
131.669
21
-104.506
0
LINE
8
BLACK
6
CONTINUOUS
10
135.955
20
-102.03
11
136.145
21
-102.03
0
LINE
8
BLACK
6
CONTINUOUS
10
136.145
20
-102.03
11
136.336
21
-102.125
0
LINE
8
BLACK
6
CONTINUOUS
10
136.336
20
-102.125
11
136.431
21
-102.22
0
LINE
8
BLACK
6
CONTINUOUS
10
136.431
20
-102.22
11
136.526
21
-102.411
0
LINE
8
BLACK
6
CONTINUOUS
10
136.526
20
-102.411
11
136.621
21
-102.791
0
LINE
8
BLACK
6
CONTINUOUS
10
136.621
20
-102.791
11
136.621
21
-103.268
0
LINE
8
BLACK
6
CONTINUOUS
10
136.621
20
-103.268
11
136.526
21
-103.649
0
LINE
8
BLACK
6
CONTINUOUS
10
136.526
20
-103.649
11
136.431
21
-103.839
0
LINE
8
BLACK
6
CONTINUOUS
10
136.431
20
-103.839
11
136.336
21
-103.934
0
LINE
8
BLACK
6
CONTINUOUS
10
136.336
20
-103.934
11
136.145
21
-104.03
0
LINE
8
BLACK
6
CONTINUOUS
10
136.145
20
-104.03
11
135.955
21
-104.03
0
LINE
8
BLACK
6
CONTINUOUS
10
135.955
20
-104.03
11
135.764
21
-103.934
0
LINE
8
BLACK
6
CONTINUOUS
10
135.764
20
-103.934
11
135.669
21
-103.839
0
LINE
8
BLACK
6
CONTINUOUS
10
135.669
20
-103.839
11
135.574
21
-103.649
0
LINE
8
BLACK
6
CONTINUOUS
10
135.574
20
-103.649
11
135.479
21
-103.268
0
LINE
8
BLACK
6
CONTINUOUS
10
135.479
20
-103.268
11
135.479
21
-102.791
0
LINE
8
BLACK
6
CONTINUOUS
10
135.479
20
-102.791
11
135.574
21
-102.411
0
LINE
8
BLACK
6
CONTINUOUS
10
135.574
20
-102.411
11
135.669
21
-102.22
0
LINE
8
BLACK
6
CONTINUOUS
10
135.669
20
-102.22
11
135.764
21
-102.125
0
LINE
8
BLACK
6
CONTINUOUS
10
135.764
20
-102.125
11
135.955
21
-102.03
0
LINE
8
BLACK
6
CONTINUOUS
10
137.479
20
-103.839
11
137.574
21
-103.934
0
LINE
8
BLACK
6
CONTINUOUS
10
137.574
20
-103.934
11
137.479
21
-104.03
0
LINE
8
BLACK
6
CONTINUOUS
10
137.479
20
-104.03
11
137.383
21
-103.934
0
LINE
8
BLACK
6
CONTINUOUS
10
137.383
20
-103.934
11
137.479
21
-103.839
0
LINE
8
BLACK
6
CONTINUOUS
10
137.479
20
-103.839
11
137.479
21
-104.03
0
LINE
8
BLACK
6
CONTINUOUS
10
138.812
20
-102.03
11
139.002
21
-102.03
0
LINE
8
BLACK
6
CONTINUOUS
10
139.002
20
-102.03
11
139.193
21
-102.125
0
LINE
8
BLACK
6
CONTINUOUS
10
139.193
20
-102.125
11
139.288
21
-102.22
0
LINE
8
BLACK
6
CONTINUOUS
10
139.288
20
-102.22
11
139.383
21
-102.411
0
LINE
8
BLACK
6
CONTINUOUS
10
139.383
20
-102.411
11
139.479
21
-102.791
0
LINE
8
BLACK
6
CONTINUOUS
10
139.479
20
-102.791
11
139.479
21
-103.268
0
LINE
8
BLACK
6
CONTINUOUS
10
139.479
20
-103.268
11
139.383
21
-103.649
0
LINE
8
BLACK
6
CONTINUOUS
10
139.383
20
-103.649
11
139.288
21
-103.839
0
LINE
8
BLACK
6
CONTINUOUS
10
139.288
20
-103.839
11
139.193
21
-103.934
0
LINE
8
BLACK
6
CONTINUOUS
10
139.193
20
-103.934
11
139.002
21
-104.03
0
LINE
8
BLACK
6
CONTINUOUS
10
139.002
20
-104.03
11
138.812
21
-104.03
0
LINE
8
BLACK
6
CONTINUOUS
10
138.812
20
-104.03
11
138.621
21
-103.934
0
LINE
8
BLACK
6
CONTINUOUS
10
138.621
20
-103.934
11
138.526
21
-103.839
0
LINE
8
BLACK
6
CONTINUOUS
10
138.526
20
-103.839
11
138.431
21
-103.649
0
LINE
8
BLACK
6
CONTINUOUS
10
138.431
20
-103.649
11
138.336
21
-103.268
0
LINE
8
BLACK
6
CONTINUOUS
10
138.336
20
-103.268
11
138.336
21
-102.791
0
LINE
8
BLACK
6
CONTINUOUS
10
138.336
20
-102.791
11
138.431
21
-102.411
0
LINE
8
BLACK
6
CONTINUOUS
10
138.431
20
-102.411
11
138.526
21
-102.22
0
LINE
8
BLACK
6
CONTINUOUS
10
138.526
20
-102.22
11
138.621
21
-102.125
0
LINE
8
BLACK
6
CONTINUOUS
10
138.621
20
-102.125
11
138.812
21
-102.03
0
LINE
8
BLACK
6
CONTINUOUS
10
140.145
20
-102.03
11
141.383
21
-102.03
0
LINE
8
BLACK
6
CONTINUOUS
10
141.383
20
-102.03
11
140.717
21
-102.791
0
LINE
8
BLACK
6
CONTINUOUS
10
140.717
20
-102.791
11
141.002
21
-102.791
0
LINE
8
BLACK
6
CONTINUOUS
10
141.002
20
-102.791
11
141.193
21
-102.887
0
LINE
8
BLACK
6
CONTINUOUS
10
141.193
20
-102.887
11
141.288
21
-102.982
0
LINE
8
BLACK
6
CONTINUOUS
10
141.288
20
-102.982
11
141.383
21
-103.172
0
LINE
8
BLACK
6
CONTINUOUS
10
141.383
20
-103.172
11
141.383
21
-103.649
0
LINE
8
BLACK
6
CONTINUOUS
10
141.383
20
-103.649
11
141.288
21
-103.839
0
LINE
8
BLACK
6
CONTINUOUS
10
141.288
20
-103.839
11
141.193
21
-103.934
0
LINE
8
BLACK
6
CONTINUOUS
10
141.193
20
-103.934
11
141.002
21
-104.03
0
LINE
8
BLACK
6
CONTINUOUS
10
141.002
20
-104.03
11
140.431
21
-104.03
0
LINE
8
BLACK
6
CONTINUOUS
10
140.431
20
-104.03
11
140.24
21
-103.934
0
LINE
8
BLACK
6
CONTINUOUS
10
140.24
20
-103.934
11
140.145
21
-103.839
0
LINE
8
BLACK
6
CONTINUOUS
10
142.336
20
-104.03
11
142.717
21
-104.03
0
LINE
8
BLACK
6
CONTINUOUS
10
142.717
20
-104.03
11
142.907
21
-103.934
0
LINE
8
BLACK
6
CONTINUOUS
10
142.907
20
-103.934
11
143.002
21
-103.839
0
LINE
8
BLACK
6
CONTINUOUS
10
143.002
20
-103.839
11
143.193
21
-103.553
0
LINE
8
BLACK
6
CONTINUOUS
10
143.193
20
-103.553
11
143.288
21
-103.172
0
LINE
8
BLACK
6
CONTINUOUS
10
143.288
20
-103.172
11
143.288
21
-102.411
0
LINE
8
BLACK
6
CONTINUOUS
10
143.288
20
-102.411
11
143.193
21
-102.22
0
LINE
8
BLACK
6
CONTINUOUS
10
143.193
20
-102.22
11
143.098
21
-102.125
0
LINE
8
BLACK
6
CONTINUOUS
10
143.098
20
-102.125
11
142.907
21
-102.03
0
LINE
8
BLACK
6
CONTINUOUS
10
142.907
20
-102.03
11
142.526
21
-102.03
0
LINE
8
BLACK
6
CONTINUOUS
10
142.526
20
-102.03
11
142.336
21
-102.125
0
LINE
8
BLACK
6
CONTINUOUS
10
142.336
20
-102.125
11
142.24
21
-102.22
0
LINE
8
BLACK
6
CONTINUOUS
10
142.24
20
-102.22
11
142.145
21
-102.411
0
LINE
8
BLACK
6
CONTINUOUS
10
142.145
20
-102.411
11
142.145
21
-102.887
0
LINE
8
BLACK
6
CONTINUOUS
10
142.145
20
-102.887
11
142.24
21
-103.077
0
LINE
8
BLACK
6
CONTINUOUS
10
142.24
20
-103.077
11
142.336
21
-103.172
0
LINE
8
BLACK
6
CONTINUOUS
10
142.336
20
-103.172
11
142.526
21
-103.268
0
LINE
8
BLACK
6
CONTINUOUS
10
142.526
20
-103.268
11
142.907
21
-103.268
0
LINE
8
BLACK
6
CONTINUOUS
10
142.907
20
-103.268
11
143.098
21
-103.172
0
LINE
8
BLACK
6
CONTINUOUS
10
143.098
20
-103.172
11
143.193
21
-103.077
0
LINE
8
BLACK
6
CONTINUOUS
10
143.193
20
-103.077
11
143.288
21
-102.887
0
LINE
8
BLACK
6
CONTINUOUS
10
145.002
20
-102.696
11
145.002
21
-104.03
0
LINE
8
BLACK
6
CONTINUOUS
10
144.526
20
-101.934
11
144.05
21
-103.363
0
LINE
8
BLACK
6
CONTINUOUS
10
144.05
20
-103.363
11
145.288
21
-103.363
0
LINE
8
BLACK
6
CONTINUOUS
10
145.955
20
-102.03
11
145.955
21
-102.411
0
LINE
8
BLACK
6
CONTINUOUS
10
146.717
20
-102.03
11
146.717
21
-102.411
0
LINE
8
BLACK
6
CONTINUOUS
10
149.669
20
-104.791
11
149.574
21
-104.696
0
LINE
8
BLACK
6
CONTINUOUS
10
149.574
20
-104.696
11
149.383
21
-104.411
0
LINE
8
BLACK
6
CONTINUOUS
10
149.383
20
-104.411
11
149.288
21
-104.22
0
LINE
8
BLACK
6
CONTINUOUS
10
149.288
20
-104.22
11
149.193
21
-103.934
0
LINE
8
BLACK
6
CONTINUOUS
10
149.193
20
-103.934
11
149.098
21
-103.458
0
LINE
8
BLACK
6
CONTINUOUS
10
149.098
20
-103.458
11
149.098
21
-103.077
0
LINE
8
BLACK
6
CONTINUOUS
10
149.098
20
-103.077
11
149.193
21
-102.601
0
LINE
8
BLACK
6
CONTINUOUS
10
149.193
20
-102.601
11
149.288
21
-102.315
0
LINE
8
BLACK
6
CONTINUOUS
10
149.288
20
-102.315
11
149.383
21
-102.125
0
LINE
8
BLACK
6
CONTINUOUS
10
149.383
20
-102.125
11
149.574
21
-101.839
0
LINE
8
BLACK
6
CONTINUOUS
10
149.574
20
-101.839
11
149.669
21
-101.744
0
LINE
8
BLACK
6
CONTINUOUS
10
150.24
20
-102.03
11
151.479
21
-102.03
0
LINE
8
BLACK
6
CONTINUOUS
10
151.479
20
-102.03
11
150.812
21
-102.791
0
LINE
8
BLACK
6
CONTINUOUS
10
150.812
20
-102.791
11
151.098
21
-102.791
0
LINE
8
BLACK
6
CONTINUOUS
10
151.098
20
-102.791
11
151.288
21
-102.887
0
LINE
8
BLACK
6
CONTINUOUS
10
151.288
20
-102.887
11
151.383
21
-102.982
0
LINE
8
BLACK
6
CONTINUOUS
10
151.383
20
-102.982
11
151.479
21
-103.172
0
LINE
8
BLACK
6
CONTINUOUS
10
151.479
20
-103.172
11
151.479
21
-103.649
0
LINE
8
BLACK
6
CONTINUOUS
10
151.479
20
-103.649
11
151.383
21
-103.839
0
LINE
8
BLACK
6
CONTINUOUS
10
151.383
20
-103.839
11
151.288
21
-103.934
0
LINE
8
BLACK
6
CONTINUOUS
10
151.288
20
-103.934
11
151.098
21
-104.03
0
LINE
8
BLACK
6
CONTINUOUS
10
151.098
20
-104.03
11
150.526
21
-104.03
0
LINE
8
BLACK
6
CONTINUOUS
10
150.526
20
-104.03
11
150.336
21
-103.934
0
LINE
8
BLACK
6
CONTINUOUS
10
150.336
20
-103.934
11
150.24
21
-103.839
0
LINE
8
BLACK
6
CONTINUOUS
10
152.145
20
-102.03
11
153.383
21
-102.03
0
LINE
8
BLACK
6
CONTINUOUS
10
153.383
20
-102.03
11
152.717
21
-102.791
0
LINE
8
BLACK
6
CONTINUOUS
10
152.717
20
-102.791
11
153.002
21
-102.791
0
LINE
8
BLACK
6
CONTINUOUS
10
153.002
20
-102.791
11
153.193
21
-102.887
0
LINE
8
BLACK
6
CONTINUOUS
10
153.193
20
-102.887
11
153.288
21
-102.982
0
LINE
8
BLACK
6
CONTINUOUS
10
153.288
20
-102.982
11
153.383
21
-103.172
0
LINE
8
BLACK
6
CONTINUOUS
10
153.383
20
-103.172
11
153.383
21
-103.649
0
LINE
8
BLACK
6
CONTINUOUS
10
153.383
20
-103.649
11
153.288
21
-103.839
0
LINE
8
BLACK
6
CONTINUOUS
10
153.288
20
-103.839
11
153.193
21
-103.934
0
LINE
8
BLACK
6
CONTINUOUS
10
153.193
20
-103.934
11
153.002
21
-104.03
0
LINE
8
BLACK
6
CONTINUOUS
10
153.002
20
-104.03
11
152.431
21
-104.03
0
LINE
8
BLACK
6
CONTINUOUS
10
152.431
20
-104.03
11
152.24
21
-103.934
0
LINE
8
BLACK
6
CONTINUOUS
10
152.24
20
-103.934
11
152.145
21
-103.839
0
LINE
8
BLACK
6
CONTINUOUS
10
155.764
20
-104.03
11
155.764
21
-102.03
0
LINE
8
BLACK
6
CONTINUOUS
10
156.621
20
-104.03
11
156.621
21
-102.982
0
LINE
8
BLACK
6
CONTINUOUS
10
156.621
20
-102.982
11
156.526
21
-102.791
0
LINE
8
BLACK
6
CONTINUOUS
10
156.526
20
-102.791
11
156.336
21
-102.696
0
LINE
8
BLACK
6
CONTINUOUS
10
156.336
20
-102.696
11
156.05
21
-102.696
0
LINE
8
BLACK
6
CONTINUOUS
10
156.05
20
-102.696
11
155.86
21
-102.791
0
LINE
8
BLACK
6
CONTINUOUS
10
155.86
20
-102.791
11
155.764
21
-102.887
0
LINE
8
BLACK
6
CONTINUOUS
10
157.86
20
-104.03
11
157.669
21
-103.934
0
LINE
8
BLACK
6
CONTINUOUS
10
157.669
20
-103.934
11
157.574
21
-103.839
0
LINE
8
BLACK
6
CONTINUOUS
10
157.574
20
-103.839
11
157.479
21
-103.649
0
LINE
8
BLACK
6
CONTINUOUS
10
157.479
20
-103.649
11
157.479
21
-103.077
0
LINE
8
BLACK
6
CONTINUOUS
10
157.479
20
-103.077
11
157.574
21
-102.887
0
LINE
8
BLACK
6
CONTINUOUS
10
157.574
20
-102.887
11
157.669
21
-102.791
0
LINE
8
BLACK
6
CONTINUOUS
10
157.669
20
-102.791
11
157.86
21
-102.696
0
LINE
8
BLACK
6
CONTINUOUS
10
157.86
20
-102.696
11
158.145
21
-102.696
0
LINE
8
BLACK
6
CONTINUOUS
10
158.145
20
-102.696
11
158.336
21
-102.791
0
LINE
8
BLACK
6
CONTINUOUS
10
158.336
20
-102.791
11
158.431
21
-102.887
0
LINE
8
BLACK
6
CONTINUOUS
10
158.431
20
-102.887
11
158.526
21
-103.077
0
LINE
8
BLACK
6
CONTINUOUS
10
158.526
20
-103.077
11
158.526
21
-103.649
0
LINE
8
BLACK
6
CONTINUOUS
10
158.526
20
-103.649
11
158.431
21
-103.839
0
LINE
8
BLACK
6
CONTINUOUS
10
158.431
20
-103.839
11
158.336
21
-103.934
0
LINE
8
BLACK
6
CONTINUOUS
10
158.336
20
-103.934
11
158.145
21
-104.03
0
LINE
8
BLACK
6
CONTINUOUS
10
158.145
20
-104.03
11
157.86
21
-104.03
0
LINE
8
BLACK
6
CONTINUOUS
10
159.669
20
-104.03
11
159.479
21
-103.934
0
LINE
8
BLACK
6
CONTINUOUS
10
159.479
20
-103.934
11
159.383
21
-103.744
0
LINE
8
BLACK
6
CONTINUOUS
10
159.383
20
-103.744
11
159.383
21
-102.03
0
LINE
8
BLACK
6
CONTINUOUS
10
161.193
20
-103.934
11
161.002
21
-104.03
0
LINE
8
BLACK
6
CONTINUOUS
10
161.002
20
-104.03
11
160.621
21
-104.03
0
LINE
8
BLACK
6
CONTINUOUS
10
160.621
20
-104.03
11
160.431
21
-103.934
0
LINE
8
BLACK
6
CONTINUOUS
10
160.431
20
-103.934
11
160.336
21
-103.744
0
LINE
8
BLACK
6
CONTINUOUS
10
160.336
20
-103.744
11
160.336
21
-102.982
0
LINE
8
BLACK
6
CONTINUOUS
10
160.336
20
-102.982
11
160.431
21
-102.791
0
LINE
8
BLACK
6
CONTINUOUS
10
160.431
20
-102.791
11
160.621
21
-102.696
0
LINE
8
BLACK
6
CONTINUOUS
10
160.621
20
-102.696
11
161.002
21
-102.696
0
LINE
8
BLACK
6
CONTINUOUS
10
161.002
20
-102.696
11
161.193
21
-102.791
0
LINE
8
BLACK
6
CONTINUOUS
10
161.193
20
-102.791
11
161.288
21
-102.982
0
LINE
8
BLACK
6
CONTINUOUS
10
161.288
20
-102.982
11
161.288
21
-103.172
0
LINE
8
BLACK
6
CONTINUOUS
10
161.288
20
-103.172
11
160.336
21
-103.363
0
LINE
8
BLACK
6
CONTINUOUS
10
162.05
20
-103.934
11
162.24
21
-104.03
0
LINE
8
BLACK
6
CONTINUOUS
10
162.24
20
-104.03
11
162.621
21
-104.03
0
LINE
8
BLACK
6
CONTINUOUS
10
162.621
20
-104.03
11
162.812
21
-103.934
0
LINE
8
BLACK
6
CONTINUOUS
10
162.812
20
-103.934
11
162.907
21
-103.744
0
LINE
8
BLACK
6
CONTINUOUS
10
162.907
20
-103.744
11
162.907
21
-103.649
0
LINE
8
BLACK
6
CONTINUOUS
10
162.907
20
-103.649
11
162.812
21
-103.458
0
LINE
8
BLACK
6
CONTINUOUS
10
162.812
20
-103.458
11
162.621
21
-103.363
0
LINE
8
BLACK
6
CONTINUOUS
10
162.621
20
-103.363
11
162.336
21
-103.363
0
LINE
8
BLACK
6
CONTINUOUS
10
162.336
20
-103.363
11
162.145
21
-103.268
0
LINE
8
BLACK
6
CONTINUOUS
10
162.145
20
-103.268
11
162.05
21
-103.077
0
LINE
8
BLACK
6
CONTINUOUS
10
162.05
20
-103.077
11
162.05
21
-102.982
0
LINE
8
BLACK
6
CONTINUOUS
10
162.05
20
-102.982
11
162.145
21
-102.791
0
LINE
8
BLACK
6
CONTINUOUS
10
162.145
20
-102.791
11
162.336
21
-102.696
0
LINE
8
BLACK
6
CONTINUOUS
10
162.336
20
-102.696
11
162.621
21
-102.696
0
LINE
8
BLACK
6
CONTINUOUS
10
162.621
20
-102.696
11
162.812
21
-102.791
0
LINE
8
BLACK
6
CONTINUOUS
10
163.574
20
-104.791
11
163.669
21
-104.696
0
LINE
8
BLACK
6
CONTINUOUS
10
163.669
20
-104.696
11
163.86
21
-104.411
0
LINE
8
BLACK
6
CONTINUOUS
10
163.86
20
-104.411
11
163.955
21
-104.22
0
LINE
8
BLACK
6
CONTINUOUS
10
163.955
20
-104.22
11
164.05
21
-103.934
0
LINE
8
BLACK
6
CONTINUOUS
10
164.05
20
-103.934
11
164.145
21
-103.458
0
LINE
8
BLACK
6
CONTINUOUS
10
164.145
20
-103.458
11
164.145
21
-103.077
0
LINE
8
BLACK
6
CONTINUOUS
10
164.145
20
-103.077
11
164.05
21
-102.601
0
LINE
8
BLACK
6
CONTINUOUS
10
164.05
20
-102.601
11
163.955
21
-102.315
0
LINE
8
BLACK
6
CONTINUOUS
10
163.955
20
-102.315
11
163.86
21
-102.125
0
LINE
8
BLACK
6
CONTINUOUS
10
163.86
20
-102.125
11
163.669
21
-101.839
0
LINE
8
BLACK
6
CONTINUOUS
10
163.669
20
-101.839
11
163.574
21
-101.744
  0
ENDSEC
  0
EOF
